<?xml version="1.0" encoding="UTF-8" standalone="no"?>
<!-- Created with Inkscape (http://www.inkscape.org/) -->

<svg
   xmlns:dc="http://purl.org/dc/elements/1.1/"
   xmlns:cc="http://creativecommons.org/ns#"
   xmlns:rdf="http://www.w3.org/1999/02/22-rdf-syntax-ns#"
   xmlns:svg="http://www.w3.org/2000/svg"
   xmlns="http://www.w3.org/2000/svg"
   xmlns:sodipodi="http://sodipodi.sourceforge.net/DTD/sodipodi-0.dtd"
   xmlns:inkscape="http://www.inkscape.org/namespaces/inkscape"
   width="433.67932mm"
   height="433.67932mm"
   viewBox="0 0 433.67932 433.67932"
   version="1.1"
   id="svg8372"
   inkscape:version="0.92.4 (5da689c313, 2019-01-14)"
   sodipodi:docname="lgo.svg">
  <defs
     id="defs8366" />
  <sodipodi:namedview
     id="base"
     pagecolor="#ffffff"
     bordercolor="#666666"
     borderopacity="1.0"
     inkscape:pageopacity="0.0"
     inkscape:pageshadow="2"
     inkscape:zoom="0.35"
     inkscape:cx="831.40816"
     inkscape:cy="964.06835"
     inkscape:document-units="mm"
     inkscape:current-layer="layer1"
     showgrid="false"
     fit-margin-top="0"
     fit-margin-left="0"
     fit-margin-right="0"
     fit-margin-bottom="0"
     inkscape:window-width="1920"
     inkscape:window-height="1017"
     inkscape:window-x="-8"
     inkscape:window-y="-8"
     inkscape:window-maximized="1" />
  <metadata
     id="metadata8369">
    <rdf:RDF>
      <cc:Work
         rdf:about="">
        <dc:format>image/svg+xml</dc:format>
        <dc:type
           rdf:resource="http://purl.org/dc/dcmitype/StillImage" />
        <dc:title></dc:title>
      </cc:Work>
    </rdf:RDF>
  </metadata>
  <g
     inkscape:label="Layer 1"
     inkscape:groupmode="layer"
     id="layer1"
     transform="translate(186.60157,-1.5412947)">
    <g
       transform="translate(1745.4904,-112.67685)"
       id="g8326">
      <circle
         transform="matrix(-0.86038004,-0.50965301,-0.50965301,0.86038004,0,0)"
         r="163.59999"
         cy="1159.0192"
         cx="1307.0441"
         id="circle5932-6-4-34-0-6"
         style="opacity:1;fill:none;fill-opacity:1;stroke:#eaeaea;stroke-width:15.15167141;stroke-miterlimit:4;stroke-dasharray:none;stroke-dashoffset:0;stroke-opacity:1"
         inkscape:export-xdpi="96"
         inkscape:export-ydpi="96" />
      <g
         transform="matrix(0.29666673,0,0,0.29666673,1133.0797,-1884.6281)"
         id="g6006-1-7">
        <circle
           inkscape:export-ydpi="96"
           inkscape:export-xdpi="96"
           style="opacity:1;fill:#1a1a1a;fill-opacity:1;stroke:none;stroke-width:13.84006214;stroke-miterlimit:4;stroke-dasharray:none;stroke-dashoffset:0;stroke-opacity:1"
           id="path1594-8-42-0-5-0-0"
           cx="-9601.1172"
           cy="7468.6025"
           r="724" />
      </g>
      <path
         inkscape:connector-curvature="0"
         id="path937-55-1-5-9-4-5"
         d="m -1814.4975,140.68166 a 214.78672,214.78672 0 0 0 -51.6652,37.65737 c 98.1419,77.86374 217.4476,159.43825 351.8696,227.79299 a 214.78672,214.78672 0 0 0 13.8277,-75.07415 214.78672,214.78672 0 0 0 -48.3226,-135.54433 c -98.0454,-9.57905 -200.0708,-31.37147 -265.7095,-54.83188 z"
         style="fill:#e0012e;stroke-width:0.87827134"
         inkscape:export-xdpi="96"
         inkscape:export-ydpi="96" />
      <path
         inkscape:connector-curvature="0"
         id="path939-5-0-9-4-7-8"
         d="m -1835.2532,153.14644 a 214.78672,214.78672 0 0 0 -30.8626,25.14218 c 98.14,77.8053 217.3852,159.39909 351.8254,227.83581 a 214.78672,214.78672 0 0 0 13.825,-75.06656 214.78672,214.78672 0 0 0 -17.1337,-83.49745 c -84.7328,-17.74073 -225.6563,-42.8873 -317.6541,-94.41398 z"
         style="fill:#ffdd02;stroke-width:0.87827134"
         inkscape:export-xdpi="96"
         inkscape:export-ydpi="96" />
      <path
         inkscape:connector-curvature="0"
         id="path941-42-3-2-2-9-4"
         d="m -1850.9947,164.76756 a 214.78672,214.78672 0 0 0 -15.168,13.57147 c 98.1356,77.85899 217.4321,159.43157 351.8471,227.85506 a 214.78672,214.78672 0 0 0 13.574,-69.61532 c -130.0157,-48.02269 -252.8396,-108.96693 -350.2531,-171.81121 z"
         style="fill:#0066b3;fill-opacity:1;stroke-width:0.87827134"
         inkscape:export-xdpi="96"
         inkscape:export-ydpi="96" />
      <path
         inkscape:connector-curvature="0"
         id="path943-5-2-6-2-4-5"
         d="m -1825.8462,147.19139 a 214.78672,214.78672 0 0 0 -12.1435,7.91204 c 102.059,48.46618 211.3771,99.6913 331.9167,128.38781 a 214.78672,214.78672 0 0 0 -15.2638,-44.28297 c -90.7516,-16.29581 -220.1991,-57.37223 -304.5094,-92.01688 z"
         style="fill:#e96a27;stroke-width:0.87827134"
         inkscape:export-xdpi="96"
         inkscape:export-ydpi="96" />
      <circle
         style="opacity:1;fill:none;fill-opacity:1;stroke:#1a1a1a;stroke-width:4.10588598;stroke-miterlimit:4;stroke-dasharray:none;stroke-dashoffset:0;stroke-opacity:1"
         id="circle2860-1-3-6-0-6"
         cx="-1715.2523"
         cy="331.0578"
         r="214.78671"
         inkscape:export-xdpi="96"
         inkscape:export-ydpi="96" />
    </g>
    <circle
       inkscape:export-ydpi="96"
       inkscape:export-xdpi="96"
       style="opacity:1;fill:none;fill-opacity:1;stroke:#eaeaea;stroke-width:17.80000305;stroke-miterlimit:4;stroke-dasharray:none;stroke-dashoffset:0;stroke-opacity:1"
       id="path1594-7-2-87-0-7-6-1"
       cx="30.238115"
       cy="218.38098"
       r="192.19533" />
    <g
       aria-label="The"
       style="font-style:normal;font-variant:normal;font-weight:normal;font-stretch:normal;font-size:3.19539785px;line-height:1.25;font-family:Munro;-inkscape-font-specification:Munro;letter-spacing:0px;word-spacing:0px;fill:#b3b3b3;fill-opacity:1;stroke:none;stroke-width:0.07988495"
       id="text2257-8-4-53-1-1-0">
      <path
         d="m -131.50111,154.74872 v 5.20084 h 5.20084 v 31.20506 h 5.20084 v -31.20506 h 5.20084 v -5.20084 z"
         style="font-size:53.25662994px;fill:#b3b3b3;fill-opacity:1;stroke-width:0.07988495"
         id="path9083" />
      <path
         d="m -110.69774,154.74872 v 36.4059 h 5.20084 v -20.80337 h 10.401686 v 20.80337 h 5.200843 v -20.80337 h -5.200843 V 165.1504 H -105.4969 v -10.40168 z"
         style="font-size:53.25662994px;fill:#b3b3b3;fill-opacity:1;stroke-width:0.07988495"
         id="path9085" />
      <path
         d="m -69.090999,185.95377 v 5.20085 h -10.401685 v -5.20085 h -5.200843 v -15.60252 h 5.200843 v -5.20085 h 10.401685 v 5.20085 h 5.200843 v 10.40168 h -15.602528 v 5.20084 z m -10.401685,-15.60252 v 5.20084 h 10.401685 v -5.20084 z"
         style="font-size:53.25662994px;fill:#b3b3b3;fill-opacity:1;stroke-width:0.07988495"
         id="path9087" />
    </g>
    <g
       aria-label="The"
       style="font-style:normal;font-variant:normal;font-weight:normal;font-stretch:normal;font-size:3.19539785px;line-height:1.25;font-family:Munro;-inkscape-font-specification:Munro;letter-spacing:0px;word-spacing:0px;fill:#ffffff;fill-opacity:1;stroke:none;stroke-width:0.07988495"
       id="text2257-2-67-8-8-7">
      <path
         d="m -133.02776,153.42688 v 5.20084 h 5.20085 v 31.20506 h 5.20084 v -31.20506 h 5.20084 v -5.20084 z"
         style="font-size:53.25662994px;fill:#ffffff;fill-opacity:1;stroke-width:0.07988495"
         id="path9076" />
      <path
         d="m -112.22438,153.42688 v 36.4059 h 5.20084 v -20.80337 h 10.401684 v 20.80337 h 5.200843 v -20.80337 h -5.200843 v -5.20084 h -10.401684 v -10.40169 z"
         style="font-size:53.25662994px;fill:#ffffff;fill-opacity:1;stroke-width:0.07988495"
         id="path9078" />
      <path
         d="m -70.617641,184.63194 v 5.20084 h -10.401685 v -5.20084 h -5.200843 v -15.60253 h 5.200843 v -5.20084 h 10.401685 v 5.20084 h 5.200843 v 10.40168 h -15.602528 v 5.20085 z m -10.401685,-15.60253 v 5.20084 h 10.401685 v -5.20084 z"
         style="font-size:53.25662994px;fill:#ffffff;fill-opacity:1;stroke-width:0.07988495"
         id="path9080" />
    </g>
    <g
       aria-label="Open"
       style="font-style:normal;font-variant:normal;font-weight:normal;font-stretch:normal;font-size:5.09725237px;line-height:1.25;font-family:Munro;-inkscape-font-specification:Munro;letter-spacing:0px;word-spacing:0px;fill:#b3b3b3;fill-opacity:1;stroke:none;stroke-width:0.1274313"
       id="text2257-0-0-8-0-8-8-9">
      <path
         d="m -89.587456,258.22896 h -8.29631 v -41.48155 h 8.29631 v -8.29631 h 16.59262 v 8.29631 h 8.29631 v 41.48155 h -8.29631 v 8.29631 h -16.59262 z m 0,0 h 16.59262 v -41.48155 h -16.59262 z"
         style="font-size:84.954216px;fill:#b3b3b3;fill-opacity:1;stroke-width:0.1274313"
         id="path9067" />
      <path
         d="m -31.513284,225.04372 v 8.29631 h 8.296311 v 24.88893 h -8.296311 v 8.29631 h -16.59262 v 16.59262 h -8.29631 v -58.07417 h 8.29631 z m -16.59262,8.29631 v 24.88893 h 16.59262 v -24.88893 z"
         style="font-size:84.954216px;fill:#b3b3b3;fill-opacity:1;stroke-width:0.1274313"
         id="path9069" />
      <path
         d="m 9.9682685,258.22896 v 8.29631 H -6.6243518 v -8.29631 h -8.2963102 v -24.88893 h 8.2963102 v -8.29631 H 9.9682685 v 8.29631 h 8.2963105 v 16.59262 H -6.6243518 v 8.29631 z M -6.6243518,233.34003 v 8.29631 H 9.9682685 v -8.29631 z"
         style="font-size:84.954216px;fill:#b3b3b3;fill-opacity:1;stroke-width:0.1274313"
         id="path9071" />
      <path
         d="m 26.56089,266.52527 h 8.29631 v -33.18524 h 16.592621 v 33.18524 h 8.29631 v -33.18524 h -8.29631 v -8.29631 H 34.8572 v 8.29631 h -8.29631 z"
         style="font-size:84.954216px;fill:#b3b3b3;fill-opacity:1;stroke-width:0.1274313"
         id="path9073" />
    </g>
    <g
       aria-label="Open"
       style="font-style:normal;font-variant:normal;font-weight:normal;font-stretch:normal;font-size:5.09725237px;line-height:1.25;font-family:Munro;-inkscape-font-specification:Munro;letter-spacing:0px;word-spacing:0px;fill:#ffffff;fill-opacity:1;stroke:none;stroke-width:0.1274313"
       id="text2257-0-2-52-8-7-4">
      <path
         d="m -91.114044,256.90712 h -8.296311 v -41.48155 h 8.296311 v -8.29631 h 16.59262 v 8.29631 h 8.29631 v 41.48155 h -8.29631 v 8.29631 h -16.59262 z m 0,0 h 16.59262 v -41.48155 h -16.59262 z"
         style="font-size:84.954216px;fill:#ffffff;fill-opacity:1;stroke-width:0.1274313"
         id="path9058" />
      <path
         d="m -33.039872,223.72188 v 8.29631 h 8.29631 v 24.88893 h -8.29631 v 8.29631 h -16.59262 v 16.59262 h -8.29631 v -58.07417 h 8.29631 z m -16.59262,8.29631 v 24.88893 h 16.59262 v -24.88893 z"
         style="font-size:84.954216px;fill:#ffffff;fill-opacity:1;stroke-width:0.1274313"
         id="path9060" />
      <path
         d="m 8.4416801,256.90712 v 8.29631 H -8.1509402 v -8.29631 H -16.44725 v -24.88893 h 8.2963098 v -8.29631 H 8.4416801 v 8.29631 H 16.73799 v 16.59262 H -8.1509402 v 8.29631 z M -8.1509402,232.01819 v 8.29631 H 8.4416801 v -8.29631 z"
         style="font-size:84.954216px;fill:#ffffff;fill-opacity:1;stroke-width:0.1274313"
         id="path9062" />
      <path
         d="m 25.034302,265.20343 h 8.29631 v -33.18524 h 16.59262 v 33.18524 h 8.29631 v -33.18524 h -8.29631 v -8.29631 h -16.59262 v 8.29631 h -8.29631 z"
         style="font-size:84.954216px;fill:#ffffff;fill-opacity:1;stroke-width:0.1274313"
         id="path9064" />
    </g>
    <g
       aria-label="Vent"
       style="font-style:normal;font-variant:normal;font-weight:normal;font-stretch:normal;font-size:5.09725237px;line-height:1.25;font-family:Munro;-inkscape-font-specification:Munro;letter-spacing:0px;word-spacing:0px;fill:#b3b3b3;fill-opacity:1;stroke:none;stroke-width:0.1274313"
       id="text2257-0-3-4-7-4-7-3-4">
      <path
         d="m -19.257013,300.41453 v 24.88893 h 8.296311 v 16.59263 h 8.2963105 v 16.59262 H 5.6319194 V 341.89609 H 13.92823 v -16.59263 h 8.296311 V 300.41453 H 13.92823 v 24.88893 H 5.6319194 v 16.59263 h -8.2963109 v -16.59263 h -8.2963105 v -24.88893 z"
         style="font-size:84.95422363px;fill:#b3b3b3;fill-opacity:1;stroke-width:0.1274313"
         id="path9049" />
      <path
         d="m 55.409786,350.1924 v 8.29631 H 38.817164 v -8.29631 h -8.296311 v -24.88894 h 8.296311 v -8.29631 h 16.592622 v 8.29631 h 8.296311 v 16.59263 H 38.817164 v 8.29631 z M 38.817164,325.30346 v 8.29632 h 16.592622 v -8.29632 z"
         style="font-size:84.95422363px;fill:#b3b3b3;fill-opacity:1;stroke-width:0.1274313"
         id="path9051" />
      <path
         d="m 72.002409,358.48871 h 8.296311 v -33.18525 h 16.592622 v 33.18525 h 8.296308 v -33.18525 h -8.296308 v -8.29631 H 80.29872 v 8.29631 h -8.296311 z"
         style="font-size:84.95422363px;fill:#b3b3b3;fill-opacity:1;stroke-width:0.1274313"
         id="path9053" />
      <path
         d="m 121.78028,300.41453 v 16.59262 h 8.29631 v 8.29631 h -8.29631 v 24.88894 h 16.59262 v 8.29631 h -16.59262 v -8.29631 h -8.29631 v -49.77787 z"
         style="font-size:84.95422363px;fill:#b3b3b3;fill-opacity:1;stroke-width:0.1274313"
         id="path9055" />
    </g>
    <g
       aria-label="Vent"
       style="font-style:normal;font-variant:normal;font-weight:normal;font-stretch:normal;font-size:5.09725237px;line-height:1.25;font-family:Munro;-inkscape-font-specification:Munro;letter-spacing:0px;word-spacing:0px;fill:#ffffff;fill-opacity:1;stroke:none;stroke-width:0.1274313"
       id="text2257-0-3-3-1-6-1-6">
      <path
         d="m -20.783623,299.09248 v 24.88893 h 8.296311 v 16.59262 h 8.2963111 v 16.59263 H 4.10531 v -16.59263 h 8.296311 v -16.59262 h 8.296311 v -24.88893 h -8.296311 v 24.88893 H 4.10531 v 16.59262 h -8.2963109 v -16.59262 h -8.2963111 v -24.88893 z"
         style="font-size:84.95422363px;fill:#ffffff;fill-opacity:1;stroke-width:0.1274313"
         id="path9040" />
      <path
         d="m 53.883176,348.87035 v 8.29631 H 37.290555 v -8.29631 h -8.296311 v -24.88894 h 8.296311 v -8.29631 h 16.592621 v 8.29631 h 8.296311 v 16.59262 H 37.290555 v 8.29632 z M 37.290555,323.98141 v 8.29631 h 16.592621 v -8.29631 z"
         style="font-size:84.95422363px;fill:#ffffff;fill-opacity:1;stroke-width:0.1274313"
         id="path9042" />
      <path
         d="m 70.4758,357.16666 h 8.29631 v -33.18525 h 16.592622 v 33.18525 h 8.296308 V 323.98141 H 95.364732 V 315.6851 H 78.77211 v 8.29631 H 70.4758 Z"
         style="font-size:84.95422363px;fill:#ffffff;fill-opacity:1;stroke-width:0.1274313"
         id="path9044" />
      <path
         d="m 120.25367,299.09248 v 16.59262 h 8.29631 v 8.29631 h -8.29631 v 24.88894 h 16.59262 v 8.29631 h -16.59262 v -8.29631 h -8.29631 v -49.77787 z"
         style="font-size:84.95422363px;fill:#ffffff;fill-opacity:1;stroke-width:0.1274313"
         id="path9046" />
    </g>
  </g>
</svg>
